<svg version="1.1" id="Layer_1" xmlns="http://www.w3.org/2000/svg" xmlns:xlink="http://www.w3.org/1999/xlink" x="0px" y="0px"
	 width="100%" viewBox="0 0 420 420" enable-background="new 0 0 420 420" xml:space="preserve">
<path fill="#6138A3" opacity="1.000000" stroke="none" 
	d="
M284.000000,421.000000 
	C189.333344,421.000000 95.166687,421.000000 1.000025,421.000000 
	C1.000017,281.000031 1.000017,141.000061 1.000008,1.000063 
	C140.999954,1.000042 280.999908,1.000042 420.999908,1.000021 
	C420.999939,140.999939 420.999939,280.999878 420.999969,420.999908 
	C375.500000,421.000000 330.000000,421.000000 284.000000,421.000000 
M155.290100,101.982178 
	C109.280426,126.474045 84.552589,172.757385 89.821976,224.519547 
	C98.068306,305.524780 186.173874,355.993744 260.519592,322.299194 
	C311.893280,299.015930 340.464111,245.695328 331.206970,190.210281 
	C317.873993,110.295792 230.988403,64.513634 155.290100,101.982178 
z"/>
<path fill="#F1EDF7" opacity="1.000000" stroke="none" 
	d="
M155.622101,101.818726 
	C230.988403,64.513634 317.873993,110.295792 331.206970,190.210281 
	C340.464111,245.695328 311.893280,299.015930 260.519592,322.299194 
	C186.173874,355.993744 98.068306,305.524780 89.821976,224.519547 
	C84.552589,172.757385 109.280426,126.474045 155.622101,101.818726 
M328.090729,225.346176 
	C328.440674,221.427353 328.790619,217.508530 329.192688,213.006180 
	C321.561523,213.006180 314.609436,212.861557 307.673248,213.129547 
	C306.304901,213.182434 304.824371,214.648132 303.691071,215.762726 
	C296.686096,222.652069 289.631653,229.501770 282.915100,236.665970 
	C281.315887,238.371704 280.199646,241.202377 280.129822,243.553329 
	C279.828308,253.703033 279.811340,263.871735 280.082520,274.023041 
	C280.201172,278.463501 279.091461,280.229736 274.270844,280.061737 
	C263.958313,279.702423 253.620392,279.805115 243.302475,280.079651 
	C241.094681,280.138336 238.424606,281.198608 236.827942,282.707794 
	C229.448288,289.683075 222.356644,296.964142 215.207123,304.180573 
	C214.297943,305.098236 213.023285,306.261536 212.991837,307.342285 
	C212.790436,314.265045 212.889084,321.196503 212.889084,328.090363 
	C264.114014,329.194397 319.423279,289.441650 328.090729,225.346176 
M222.898453,93.301888 
	C219.789871,93.130287 216.681290,92.958679 212.992676,92.755058 
	C212.992676,99.426735 212.777924,105.562286 213.112122,111.667786 
	C213.225189,113.733482 214.252563,116.174393 215.675232,117.670776 
	C222.447922,124.794518 229.360367,131.802673 236.551407,138.499390 
	C238.379120,140.201492 241.384125,141.398819 243.891357,141.479080 
	C254.213501,141.809555 264.555359,141.766525 274.883362,141.547607 
	C278.786133,141.464844 280.165771,142.667755 280.079285,146.659897 
	C279.852051,157.154266 279.858185,167.660553 280.122986,178.153214 
	C280.178833,180.365906 281.193787,183.053055 282.695648,184.645584 
	C289.782043,192.159760 297.164886,199.396164 304.516296,206.656418 
	C305.522675,207.650330 306.925781,208.845032 308.179535,208.885559 
	C314.955536,209.104599 321.742340,208.989349 328.497467,208.989349 
	C329.809326,158.043793 289.838623,100.915260 222.898453,93.301888 
M93.961441,225.439560 
	C102.515755,295.239563 167.071075,331.114594 208.781448,327.528717 
	C208.781448,321.941650 209.027969,316.291199 208.660004,310.681030 
	C208.513000,308.439484 207.545044,305.782745 206.033539,304.180023 
	C199.069946,296.796295 191.894821,289.599304 184.522888,282.623505 
	C182.934845,281.120789 180.235565,280.124329 178.018478,280.068207 
	C167.538742,279.803009 157.045120,279.786652 146.564178,280.023468 
	C142.614136,280.112732 141.313263,278.803497 141.382523,274.906250 
	C141.568832,264.423279 141.612701,253.929489 141.300613,243.452301 
	C141.230560,241.101089 140.022018,238.286377 138.402481,236.564713 
	C131.334702,229.051300 123.948135,221.835922 116.604843,214.585724 
	C115.597084,213.590729 114.204292,212.383194 112.952332,212.339218 
	C106.510101,212.112885 100.055656,212.234283 92.891914,212.234283 
	C93.254730,216.722000 93.571190,220.636398 93.961441,225.439560 
M208.991882,104.464447 
	C208.991882,100.684921 208.991882,96.905396 208.991882,93.139572 
	C140.499146,92.885170 90.619736,154.901550 93.898041,208.293640 
	C100.361351,208.293640 106.855888,208.459976 113.330345,208.173218 
	C114.890388,208.104111 116.643623,206.800491 117.865128,205.610123 
	C124.785477,198.866150 131.724518,192.126495 138.298141,185.051712 
	C140.003693,183.216125 141.214508,180.210403 141.294647,177.698792 
	C141.629196,167.212265 141.531860,156.708191 141.404236,146.212830 
	C141.362885,142.812378 142.472305,141.493225 146.020813,141.558151 
	C156.181137,141.744034 166.351959,141.437973 176.508484,141.707870 
	C180.540649,141.815018 183.374512,140.552689 186.082504,137.642853 
	C191.414383,131.913574 196.789551,126.158508 202.698730,121.052872 
	C207.694351,116.736580 210.114441,111.942108 208.991882,104.464447 
M178.408752,200.924347 
	C181.647644,197.865829 184.886536,194.807327 187.637405,192.209641 
	C173.179947,177.835922 159.346008,164.082108 145.454147,150.270721 
	C145.454147,160.131302 145.423431,170.399734 145.508331,180.667191 
	C145.515656,181.555862 146.083038,182.641602 146.733627,183.292679 
	C154.842102,191.406708 163.014145,199.457214 172.252029,208.594421 
	C174.215164,206.107727 176.060974,203.769669 178.408752,200.924347 
M193.043579,156.456268 
	C190.931519,154.338226 188.586639,152.401825 186.760361,150.060837 
	C183.807114,146.275269 180.174088,145.154053 175.472839,145.389679 
	C168.345230,145.746918 161.186295,145.457794 154.041092,145.505280 
	C152.696869,145.514221 151.354553,145.813187 149.881897,145.994232 
	C164.090027,160.010056 177.861923,173.595551 191.197784,186.750900 
	C196.122467,181.807724 201.474808,176.435242 207.559113,170.328064 
	C203.115555,166.089325 198.329010,161.523407 193.043579,156.456268 
M260.637573,257.856262 
	C265.467377,262.707855 270.297150,267.559448 275.970367,273.258270 
	C275.970367,261.735199 275.999207,251.748520 275.928925,241.762527 
	C275.921326,240.681137 275.664185,239.294830 274.975220,238.571793 
	C266.978394,230.179443 258.876160,221.887543 250.811325,213.578751 
	C244.784668,219.966629 239.589264,225.473419 233.908310,231.494888 
	C242.374603,239.841690 251.257050,248.598785 260.637573,257.856262 
M227.588593,269.914093 
	C222.014679,264.319458 216.440750,258.724854 211.705536,253.972046 
	C202.951279,262.513947 194.776825,270.490082 187.610901,277.482178 
	C194.508896,284.524139 201.604675,291.768005 208.654617,298.965088 
	C208.685410,298.573181 208.795792,297.786072 208.801361,296.998230 
	C208.840088,291.507294 208.781006,286.013702 208.958939,280.527649 
	C208.987289,279.653534 210.048553,278.812927 210.632294,277.956848 
	C211.330704,278.738617 212.410797,279.423462 212.639618,280.324493 
	C212.998337,281.736969 212.802750,283.295441 212.805832,284.792114 
	C212.815887,289.671051 212.809586,294.549957 212.809586,299.816345 
	C220.455154,292.056793 227.504318,284.902557 235.562637,276.724121 
	C233.383392,274.884918 230.735535,272.650269 227.588593,269.914093 
M270.091187,193.591339 
	C264.376526,199.117371 258.661835,204.643402 253.177322,209.946854 
	C262.044037,218.730392 270.147491,226.757843 277.265930,233.809509 
	C284.070099,226.894913 291.158264,219.691757 297.705170,213.038620 
	C297.819305,213.044281 296.664825,212.944138 295.509766,212.937149 
	C290.678467,212.907883 285.841400,213.024551 281.020386,212.794922 
	C280.063110,212.749344 279.167206,211.415649 278.242981,210.675934 
	C279.121887,210.079193 279.934296,209.159348 280.895325,208.961517 
	C282.334412,208.665298 283.877899,208.872955 285.376984,208.872406 
	C290.090973,208.870667 294.804962,208.871780 299.756897,208.871780 
	C291.972687,201.216080 284.676758,194.040573 276.563934,186.061691 
	C274.875580,188.048233 272.732666,190.569611 270.091187,193.591339 
M141.051895,188.140823 
	C134.720886,194.496078 128.389877,200.851334 122.058861,207.206589 
	C127.170105,208.333893 131.497284,208.103424 135.784592,208.417450 
	C138.498932,208.616272 141.153839,209.626648 143.835388,210.273041 
	C141.051498,210.979599 138.297455,212.094025 135.476959,212.300522 
	C130.833389,212.640472 126.146790,212.392715 121.480392,212.392715 
	C129.336044,220.125076 136.742920,227.415710 143.820847,234.382553 
	C151.394699,226.665955 159.396545,218.513321 167.883118,209.866806 
	C160.613174,202.688492 152.977432,195.065369 145.181091,187.610184 
	C144.559586,187.015900 142.827805,187.582687 141.051895,188.140823 
M264.308411,276.050629 
	C266.703583,276.050629 269.098724,276.050629 271.804932,276.050629 
	C257.338623,261.804535 243.460663,248.137787 230.225449,235.104019 
	C225.336426,239.926102 219.936646,245.251953 214.105972,251.002777 
	C221.822647,258.644226 229.777802,266.654755 237.939011,274.449554 
	C239.068512,275.528320 241.207214,275.935059 242.895432,275.976837 
	C249.713013,276.145325 256.537109,276.049011 264.308411,276.050629 
M231.934616,147.402359 
	C233.046799,146.210800 234.158997,145.019226 234.449188,144.708328 
	C226.920486,137.392120 219.686203,130.362015 212.937836,123.804115 
	C212.937836,128.072937 213.091034,133.555649 212.836029,139.019318 
	C212.767578,140.485718 211.455795,141.894089 210.714783,143.329117 
	C210.126556,141.954254 209.075592,140.594330 209.030609,139.201920 
	C208.840576,133.320633 208.950119,127.429680 208.950119,122.003487 
	C201.406464,129.375793 193.984940,136.628738 186.727386,143.721451 
	C194.654205,151.609985 202.748871,159.665558 211.455399,168.330048 
	C217.981354,161.658325 224.707748,154.781693 231.934616,147.402359 
M264.807434,193.307526 
	C267.271515,190.834747 269.815613,188.435196 272.169647,185.861755 
	C273.580566,184.319336 275.717468,182.538574 275.773956,180.807709 
	C276.112518,170.434174 275.941803,160.044006 275.941803,151.085892 
	C262.412476,164.461639 248.472305,178.243576 235.180130,191.384857 
	C240.079895,196.264664 245.447098,201.610016 251.102249,207.242142 
	C255.233231,203.039902 259.770691,198.424164 264.807434,193.307526 
M180.388840,243.888809 
	C170.141296,254.170197 159.893768,264.451599 149.646240,274.733002 
	C160.569733,275.924866 170.942490,275.939423 181.314896,275.886139 
	C181.893082,275.883179 182.584335,275.437195 183.027863,274.999664 
	C191.262589,266.876526 199.467636,258.723267 207.397141,250.855957 
	C201.478851,244.890060 196.152740,239.521118 190.290390,233.611618 
	C187.282867,236.738525 184.085327,240.063004 180.388840,243.888809 
M240.151703,145.608856 
	C231.314621,154.044922 222.477539,162.481003 213.782684,170.781311 
	C219.780563,176.702927 225.189819,182.043381 229.631897,186.428955 
	C243.242661,173.017792 257.090179,159.373352 271.146698,145.522980 
	C261.200134,145.522980 251.113678,145.522980 240.151703,145.608856 
M175.567810,243.067596 
	C179.834229,239.134964 184.100632,235.202332 187.986237,231.620728 
	C181.881500,225.307739 176.602768,219.848923 170.625381,213.667633 
	C165.144943,219.352112 160.064117,225.622864 153.973053,230.675781 
	C147.031464,236.434265 144.359268,243.037079 145.270508,251.899918 
	C145.937195,258.384216 145.401062,264.992188 145.401062,273.042236 
	C156.069794,262.442902 165.569016,253.005493 175.567810,243.067596 
M236.461441,200.001465 
	C234.782944,197.795746 233.104446,195.590027 231.848999,193.940262 
	C225.237549,200.473221 219.853439,205.793427 214.766281,210.820206 
	C219.852722,216.015015 225.154129,221.429398 230.203903,226.586777 
	C235.454163,221.161102 240.800964,215.635666 246.743027,209.495056 
	C243.801971,206.790543 240.384659,203.648087 236.461441,200.001465 
M219.507065,182.992905 
	C216.824829,180.063095 214.142578,177.133301 211.943069,174.730804 
	C205.798355,180.846176 200.325195,186.293182 195.267319,191.326904 
	C200.236145,196.410202 205.546738,201.843140 210.078049,206.478851 
	C215.422150,201.149414 220.880463,195.706085 227.029404,189.574005 
	C225.032608,187.845398 222.519333,185.669708 219.507065,182.992905 
M224.824875,227.673523 
	C220.168610,223.061295 215.512344,218.449066 211.256653,214.233612 
	C205.400146,220.165176 200.094467,225.538849 195.139114,230.557709 
	C200.231552,235.684784 205.569763,241.059311 211.468491,246.998154 
	C216.101273,242.206268 221.009003,237.294144 225.644058,232.136948 
	C226.252731,231.459702 225.465240,229.527603 224.824875,227.673523 
M197.257965,200.214706 
	C195.601028,197.942429 193.944107,195.670151 192.986069,194.356339 
	C186.316208,200.950989 180.856476,206.349182 176.021713,211.129440 
	C180.729904,216.056213 185.864105,221.428787 191.042297,226.847382 
	C196.202988,221.424957 201.414398,215.949249 207.792404,209.247757 
	C204.802292,206.705750 201.282364,203.713348 197.257965,200.214706 
z"/>
<path fill="#653DA5" opacity="1.000000" stroke="none" 
	d="
M328.057617,225.788269 
	C319.423279,289.441650 264.114014,329.194397 212.889084,328.090363 
	C212.889084,321.196503 212.790436,314.265045 212.991837,307.342285 
	C213.023285,306.261536 214.297943,305.098236 215.207123,304.180573 
	C222.356644,296.964142 229.448288,289.683075 236.827942,282.707794 
	C238.424606,281.198608 241.094681,280.138336 243.302475,280.079651 
	C253.620392,279.805115 263.958313,279.702423 274.270844,280.061737 
	C279.091461,280.229736 280.201172,278.463501 280.082520,274.023041 
	C279.811340,263.871735 279.828308,253.703033 280.129822,243.553329 
	C280.199646,241.202377 281.315887,238.371704 282.915100,236.665970 
	C289.631653,229.501770 296.686096,222.652069 303.691071,215.762726 
	C304.824371,214.648132 306.304901,213.182434 307.673248,213.129547 
	C314.609436,212.861557 321.561523,213.006180 329.192688,213.006180 
	C328.790619,217.508530 328.440674,221.427353 328.057617,225.788269 
z"/>
<path fill="#653EA5" opacity="1.000000" stroke="none" 
	d="
M223.347076,93.350632 
	C289.838623,100.915260 329.809326,158.043793 328.497467,208.989349 
	C321.742340,208.989349 314.955536,209.104599 308.179535,208.885559 
	C306.925781,208.845032 305.522675,207.650330 304.516296,206.656418 
	C297.164886,199.396164 289.782043,192.159760 282.695648,184.645584 
	C281.193787,183.053055 280.178833,180.365906 280.122986,178.153214 
	C279.858185,167.660553 279.852051,157.154266 280.079285,146.659897 
	C280.165771,142.667755 278.786133,141.464844 274.883362,141.547607 
	C264.555359,141.766525 254.213501,141.809555 243.891357,141.479080 
	C241.384125,141.398819 238.379120,140.201492 236.551407,138.499390 
	C229.360367,131.802673 222.447922,124.794518 215.675232,117.670776 
	C214.252563,116.174393 213.225189,113.733482 213.112122,111.667786 
	C212.777924,105.562286 212.992676,99.426735 212.992676,92.755058 
	C216.681290,92.958679 219.789871,93.130287 223.347076,93.350632 
z"/>
<path fill="#663FA6" opacity="1.000000" stroke="none" 
	d="
M93.924545,224.995178 
	C93.571190,220.636398 93.254730,216.722000 92.891914,212.234283 
	C100.055656,212.234283 106.510101,212.112885 112.952332,212.339218 
	C114.204292,212.383194 115.597084,213.590729 116.604843,214.585724 
	C123.948135,221.835922 131.334702,229.051300 138.402481,236.564713 
	C140.022018,238.286377 141.230560,241.101089 141.300613,243.452301 
	C141.612701,253.929489 141.568832,264.423279 141.382523,274.906250 
	C141.313263,278.803497 142.614136,280.112732 146.564178,280.023468 
	C157.045120,279.786652 167.538742,279.803009 178.018478,280.068207 
	C180.235565,280.124329 182.934845,281.120789 184.522888,282.623505 
	C191.894821,289.599304 199.069946,296.796295 206.033539,304.180023 
	C207.545044,305.782745 208.513000,308.439484 208.660004,310.681030 
	C209.027969,316.291199 208.781448,321.941650 208.781448,327.528717 
	C167.071075,331.114594 102.515755,295.239563 93.924545,224.995178 
z"/>
<path fill="#653EA5" opacity="1.000000" stroke="none" 
	d="
M208.991821,104.948769 
	C210.114441,111.942108 207.694351,116.736580 202.698730,121.052872 
	C196.789551,126.158508 191.414383,131.913574 186.082504,137.642853 
	C183.374512,140.552689 180.540649,141.815018 176.508484,141.707870 
	C166.351959,141.437973 156.181137,141.744034 146.020813,141.558151 
	C142.472305,141.493225 141.362885,142.812378 141.404236,146.212830 
	C141.531860,156.708191 141.629196,167.212265 141.294647,177.698792 
	C141.214508,180.210403 140.003693,183.216125 138.298141,185.051712 
	C131.724518,192.126495 124.785477,198.866150 117.865128,205.610123 
	C116.643623,206.800491 114.890388,208.104111 113.330345,208.173218 
	C106.855888,208.459976 100.361351,208.293640 93.898041,208.293640 
	C90.619736,154.901550 140.499146,92.885170 208.991882,93.139572 
	C208.991882,96.905396 208.991882,100.684921 208.991821,104.948769 
z"/>
<path fill="#6A43A8" opacity="1.000000" stroke="none" 
	d="
M178.157761,201.177979 
	C176.060974,203.769669 174.215164,206.107727 172.252029,208.594421 
	C163.014145,199.457214 154.842102,191.406708 146.733627,183.292679 
	C146.083038,182.641602 145.515656,181.555862 145.508331,180.667191 
	C145.423431,170.399734 145.454147,160.131302 145.454147,150.270721 
	C159.346008,164.082108 173.179947,177.835922 187.637405,192.209641 
	C184.886536,194.807327 181.647644,197.865829 178.157761,201.177979 
z"/>
<path fill="#6A43A8" opacity="1.000000" stroke="none" 
	d="
M193.293030,156.706879 
	C198.329010,161.523407 203.115555,166.089325 207.559113,170.328064 
	C201.474808,176.435242 196.122467,181.807724 191.197784,186.750900 
	C177.861923,173.595551 164.090027,160.010056 149.881897,145.994232 
	C151.354553,145.813187 152.696869,145.514221 154.041092,145.505280 
	C161.186295,145.457794 168.345230,145.746918 175.472839,145.389679 
	C180.174088,145.154053 183.807114,146.275269 186.760361,150.060837 
	C188.586639,152.401825 190.931519,154.338226 193.293030,156.706879 
z"/>
<path fill="#6841A7" opacity="1.000000" stroke="none" 
	d="
M260.388550,257.606079 
	C251.257050,248.598785 242.374603,239.841690 233.908310,231.494888 
	C239.589264,225.473419 244.784668,219.966629 250.811325,213.578751 
	C258.876160,221.887543 266.978394,230.179443 274.975220,238.571793 
	C275.664185,239.294830 275.921326,240.681137 275.928925,241.762527 
	C275.999207,251.748520 275.970367,261.735199 275.970367,273.258270 
	C270.297150,267.559448 265.467377,262.707855 260.388550,257.606079 
z"/>
<path fill="#6841A7" opacity="1.000000" stroke="none" 
	d="
M227.838135,270.164856 
	C230.735535,272.650269 233.383392,274.884918 235.562637,276.724121 
	C227.504318,284.902557 220.455154,292.056793 212.809586,299.816345 
	C212.809586,294.549957 212.815887,289.671051 212.805832,284.792114 
	C212.802750,283.295441 212.998337,281.736969 212.639618,280.324493 
	C212.410797,279.423462 211.330704,278.738617 210.632294,277.956848 
	C210.048553,278.812927 208.987289,279.653534 208.958939,280.527649 
	C208.781006,286.013702 208.840088,291.507294 208.801361,296.998230 
	C208.795792,297.786072 208.685410,298.573181 208.654617,298.965088 
	C201.604675,291.768005 194.508896,284.524139 187.610901,277.482178 
	C194.776825,270.490082 202.951279,262.513947 211.705536,253.972046 
	C216.440750,258.724854 222.014679,264.319458 227.838135,270.164856 
z"/>
<path fill="#6942A8" opacity="1.000000" stroke="none" 
	d="
M270.340454,193.341156 
	C272.732666,190.569611 274.875580,188.048233 276.563934,186.061691 
	C284.676758,194.040573 291.972687,201.216080 299.756897,208.871780 
	C294.804962,208.871780 290.090973,208.870667 285.376984,208.872406 
	C283.877899,208.872955 282.334412,208.665298 280.895325,208.961517 
	C279.934296,209.159348 279.121887,210.079193 278.242981,210.675934 
	C279.167206,211.415649 280.063110,212.749344 281.020386,212.794922 
	C285.841400,213.024551 290.678467,212.907883 295.509766,212.937149 
	C296.664825,212.944138 297.819305,213.044281 297.705170,213.038620 
	C291.158264,219.691757 284.070099,226.894913 277.265930,233.809509 
	C270.147491,226.757843 262.044037,218.730392 253.177322,209.946854 
	C258.661835,204.643402 264.376526,199.117371 270.340454,193.341156 
z"/>
<path fill="#6841A7" opacity="1.000000" stroke="none" 
	d="
M141.331940,187.875366 
	C142.827805,187.582687 144.559586,187.015900 145.181091,187.610184 
	C152.977432,195.065369 160.613174,202.688492 167.883118,209.866806 
	C159.396545,218.513321 151.394699,226.665955 143.820847,234.382553 
	C136.742920,227.415710 129.336044,220.125076 121.480392,212.392715 
	C126.146790,212.392715 130.833389,212.640472 135.476959,212.300522 
	C138.297455,212.094025 141.051498,210.979599 143.835388,210.273041 
	C141.153839,209.626648 138.498932,208.616272 135.784592,208.417450 
	C131.497284,208.103424 127.170105,208.333893 122.058861,207.206589 
	C128.389877,200.851334 134.720886,194.496078 141.331940,187.875366 
z"/>
<path fill="#6942A7" opacity="1.000000" stroke="none" 
	d="
M263.833618,276.050537 
	C256.537109,276.049011 249.713013,276.145325 242.895432,275.976837 
	C241.207214,275.935059 239.068512,275.528320 237.939011,274.449554 
	C229.777802,266.654755 221.822647,258.644226 214.105972,251.002777 
	C219.936646,245.251953 225.336426,239.926102 230.225449,235.104019 
	C243.460663,248.137787 257.338623,261.804535 271.804932,276.050629 
	C269.098724,276.050629 266.703583,276.050629 263.833618,276.050537 
z"/>
<path fill="#6841A7" opacity="1.000000" stroke="none" 
	d="
M231.684372,147.653717 
	C224.707748,154.781693 217.981354,161.658325 211.455399,168.330048 
	C202.748871,159.665558 194.654205,151.609985 186.727386,143.721451 
	C193.984940,136.628738 201.406464,129.375793 208.950119,122.003487 
	C208.950119,127.429680 208.840576,133.320633 209.030609,139.201920 
	C209.075592,140.594330 210.126556,141.954254 210.714783,143.329117 
	C211.455795,141.894089 212.767578,140.485718 212.836029,139.019318 
	C213.091034,133.555649 212.937836,128.072937 212.937836,123.804115 
	C219.686203,130.362015 226.920486,137.392120 234.449188,144.708328 
	C234.158997,145.019226 233.046799,146.210800 231.684372,147.653717 
z"/>
<path fill="#6841A7" opacity="1.000000" stroke="none" 
	d="
M264.557800,193.557983 
	C259.770691,198.424164 255.233231,203.039902 251.102249,207.242142 
	C245.447098,201.610016 240.079895,196.264664 235.180130,191.384857 
	C248.472305,178.243576 262.412476,164.461639 275.941803,151.085892 
	C275.941803,160.044006 276.112518,170.434174 275.773956,180.807709 
	C275.717468,182.538574 273.580566,184.319336 272.169647,185.861755 
	C269.815613,188.435196 267.271515,190.834747 264.557800,193.557983 
z"/>
<path fill="#6841A7" opacity="1.000000" stroke="none" 
	d="
M180.638306,243.638153 
	C184.085327,240.063004 187.282867,236.738525 190.290390,233.611618 
	C196.152740,239.521118 201.478851,244.890060 207.397141,250.855957 
	C199.467636,258.723267 191.262589,266.876526 183.027863,274.999664 
	C182.584335,275.437195 181.893082,275.883179 181.314896,275.886139 
	C170.942490,275.939423 160.569733,275.924866 149.646240,274.733002 
	C159.893768,264.451599 170.141296,254.170197 180.638306,243.638153 
z"/>
<path fill="#6942A8" opacity="1.000000" stroke="none" 
	d="
M240.589462,145.565918 
	C251.113678,145.522980 261.200134,145.522980 271.146698,145.522980 
	C257.090179,159.373352 243.242661,173.017792 229.631897,186.428955 
	C225.189819,182.043381 219.780563,176.702927 213.782684,170.781311 
	C222.477539,162.481003 231.314621,154.044922 240.589462,145.565918 
z"/>
<path fill="#6942A8" opacity="1.000000" stroke="none" 
	d="
M175.318024,243.317841 
	C165.569016,253.005493 156.069794,262.442902 145.401062,273.042236 
	C145.401062,264.992188 145.937195,258.384216 145.270508,251.899918 
	C144.359268,243.037079 147.031464,236.434265 153.973053,230.675781 
	C160.064117,225.622864 165.144943,219.352112 170.625381,213.667633 
	C176.602768,219.848923 181.881500,225.307739 187.986237,231.620728 
	C184.100632,235.202332 179.834229,239.134964 175.318024,243.317841 
z"/>
<path fill="#6B45A9" opacity="1.000000" stroke="none" 
	d="
M236.714401,200.253540 
	C240.384659,203.648087 243.801971,206.790543 246.743027,209.495056 
	C240.800964,215.635666 235.454163,221.161102 230.203903,226.586777 
	C225.154129,221.429398 219.852722,216.015015 214.766281,210.820206 
	C219.853439,205.793427 225.237549,200.473221 231.848999,193.940262 
	C233.104446,195.590027 234.782944,197.795746 236.714401,200.253540 
z"/>
<path fill="#6B44A9" opacity="1.000000" stroke="none" 
	d="
M219.756561,183.243454 
	C222.519333,185.669708 225.032608,187.845398 227.029404,189.574005 
	C220.880463,195.706085 215.422150,201.149414 210.078049,206.478851 
	C205.546738,201.843140 200.236145,196.410202 195.267319,191.326904 
	C200.325195,186.293182 205.798355,180.846176 211.943069,174.730804 
	C214.142578,177.133301 216.824829,180.063095 219.756561,183.243454 
z"/>
<path fill="#6B45A9" opacity="1.000000" stroke="none" 
	d="
M225.074615,227.925110 
	C225.465240,229.527603 226.252731,231.459702 225.644058,232.136948 
	C221.009003,237.294144 216.101273,242.206268 211.468491,246.998154 
	C205.569763,241.059311 200.231552,235.684784 195.139114,230.557709 
	C200.094467,225.538849 205.400146,220.165176 211.256653,214.233612 
	C215.512344,218.449066 220.168610,223.061295 225.074615,227.925110 
z"/>
<path fill="#6B45A9" opacity="1.000000" stroke="none" 
	d="
M197.510208,200.467819 
	C201.282364,203.713348 204.802292,206.705750 207.792404,209.247757 
	C201.414398,215.949249 196.202988,221.424957 191.042297,226.847382 
	C185.864105,221.428787 180.729904,216.056213 176.021713,211.129440 
	C180.856476,206.349182 186.316208,200.950989 192.986069,194.356339 
	C193.944107,195.670151 195.601028,197.942429 197.510208,200.467819 
z"/>
</svg>